<svg xmlns="http://www.w3.org/2000/svg" xmlns:xlink="http://www.w3.org/1999/xlink" contentStyleType="text/css" data-diagram-type="CLASS" height="506px" preserveAspectRatio="none" style="width:956px;height:506px;background:#FFFFFF;" version="1.1" viewBox="0 0 956 506" width="956px" zoomAndPan="magnify"><defs/><g><!--class Matematicas--><g class="entity" data-entity="Matematicas" data-source-line="1" data-uid="ent0002" id="entity_Matematicas"><rect fill="#F1F1F1" height="64.2969" rx="2.5" ry="2.5" style="stroke:#181818;stroke-width:0.5;" width="292.417" x="619.11" y="204.64"/><ellipse cx="716.1051" cy="220.64" fill="#ADD1B2" rx="11" ry="11" style="stroke:#181818;stroke-width:1;"/><path d="M719.0739,226.2806 Q718.4957,226.5775 717.8551,226.7181 Q717.2145,226.8744 716.5114,226.8744 Q714.0114,226.8744 712.6832,225.2338 Q711.3707,223.5775 711.3707,220.4525 Q711.3707,217.3275 712.6832,215.6713 Q714.0114,214.015 716.5114,214.015 Q717.2145,214.015 717.8551,214.1713 Q718.5114,214.3275 719.0739,214.6244 L719.0739,217.3431 Q718.4489,216.765 717.8551,216.4994 Q717.2614,216.2181 716.6364,216.2181 Q715.2926,216.2181 714.6051,217.2963 Q713.9176,218.3588 713.9176,220.4525 Q713.9176,222.5463 714.6051,223.6244 Q715.2926,224.6869 716.6364,224.6869 Q717.2614,224.6869 717.8551,224.4213 Q718.4489,224.14 719.0739,223.5619 L719.0739,226.2806 Z " fill="#000000"/><text fill="#000000" font-family="sans-serif" font-size="14" lengthAdjust="spacing" textLength="89.9268" x="736.6051" y="225.4867">Matematicas</text><line style="stroke:#181818;stroke-width:0.5;" x1="620.11" x2="910.527" y1="236.64" y2="236.64"/><line style="stroke:#181818;stroke-width:0.5;" x1="620.11" x2="910.527" y1="244.64" y2="244.64"/><ellipse cx="630.11" cy="258.2884" fill="#84BE84" rx="3" ry="3" style="stroke:#038048;stroke-width:1;"/><text fill="#000000" font-family="sans-serif" font-size="14" lengthAdjust="spacing" textLength="266.417" x="639.11" y="261.6351">generarNumeroPi(long pasos): double</text></g><!--class RandomUtils--><g class="entity" data-entity="RandomUtils" data-source-line="5" data-uid="ent0003" id="entity_RandomUtils"><rect fill="#F1F1F1" height="64.2969" rx="2.5" ry="2.5" style="stroke:#181818;stroke-width:0.5;" width="367.8447" x="581.4" y="7"/><ellipse cx="716.5328" cy="23" fill="#ADD1B2" rx="11" ry="11" style="stroke:#181818;stroke-width:1;"/><path d="M719.5016,28.6406 Q718.9234,28.9375 718.2828,29.0781 Q717.6422,29.2344 716.9391,29.2344 Q714.4391,29.2344 713.1109,27.5938 Q711.7984,25.9375 711.7984,22.8125 Q711.7984,19.6875 713.1109,18.0313 Q714.4391,16.375 716.9391,16.375 Q717.6422,16.375 718.2828,16.5313 Q718.9391,16.6875 719.5016,16.9844 L719.5016,19.7031 Q718.8766,19.125 718.2828,18.8594 Q717.6891,18.5781 717.0641,18.5781 Q715.7203,18.5781 715.0328,19.6563 Q714.3453,20.7188 714.3453,22.8125 Q714.3453,24.9063 715.0328,25.9844 Q715.7203,27.0469 717.0641,27.0469 Q717.6891,27.0469 718.2828,26.7813 Q718.8766,26.5 719.5016,25.9219 L719.5016,28.6406 Z " fill="#000000"/><text fill="#000000" font-family="sans-serif" font-size="14" lengthAdjust="spacing" textLength="89.0791" x="737.0328" y="27.8467">RandomUtils</text><line style="stroke:#181818;stroke-width:0.5;" x1="582.4" x2="948.2447" y1="39" y2="39"/><line style="stroke:#181818;stroke-width:0.5;" x1="582.4" x2="948.2447" y1="47" y2="47"/><ellipse cx="592.4" cy="60.6484" fill="#84BE84" rx="3" ry="3" style="stroke:#038048;stroke-width:1;"/><text fill="#000000" font-family="sans-serif" font-size="14" lengthAdjust="spacing" text-decoration="underline" textLength="341.8447" x="601.4" y="63.9951">randomDouble(double min, double max): double</text></g><!--class Tablero--><g class="entity" data-entity="Tablero" data-source-line="9" data-uid="ent0004" id="entity_Tablero"><rect fill="#F1F1F1" height="210.9688" rx="2.5" ry="2.5" style="stroke:#181818;stroke-width:0.5;" width="284.6377" x="7" y="131.3"/><ellipse cx="118.6479" cy="147.3" fill="#ADD1B2" rx="11" ry="11" style="stroke:#181818;stroke-width:1;"/><path d="M121.6167,152.9406 Q121.0386,153.2375 120.3979,153.3781 Q119.7573,153.5344 119.0542,153.5344 Q116.5542,153.5344 115.2261,151.8938 Q113.9136,150.2375 113.9136,147.1125 Q113.9136,143.9875 115.2261,142.3313 Q116.5542,140.675 119.0542,140.675 Q119.7573,140.675 120.3979,140.8313 Q121.0542,140.9875 121.6167,141.2844 L121.6167,144.0031 Q120.9917,143.425 120.3979,143.1594 Q119.8042,142.8781 119.1792,142.8781 Q117.8354,142.8781 117.1479,143.9563 Q116.4604,145.0188 116.4604,147.1125 Q116.4604,149.2063 117.1479,150.2844 Q117.8354,151.3469 119.1792,151.3469 Q119.8042,151.3469 120.3979,151.0813 Q120.9917,150.8 121.6167,150.2219 L121.6167,152.9406 Z " fill="#000000"/><text fill="#000000" font-family="sans-serif" font-size="14" lengthAdjust="spacing" textLength="52.8418" x="139.1479" y="152.1467">Tablero</text><line style="stroke:#181818;stroke-width:0.5;" x1="8" x2="290.6377" y1="163.3" y2="163.3"/><rect fill="none" height="6" style="stroke:#C82930;stroke-width:1;" width="6" x="15" y="173.9484"/><text fill="#000000" font-family="sans-serif" font-size="14" lengthAdjust="spacing" text-decoration="underline" textLength="108.2334" x="27" y="180.2951">DIMENSION: int</text><rect fill="none" height="6" style="stroke:#C82930;stroke-width:1;" width="6" x="15" y="190.2453"/><text fill="#000000" font-family="sans-serif" font-size="14" lengthAdjust="spacing" textLength="140.7998" x="27" y="196.592">estadoActual: int[][]</text><rect fill="none" height="6" style="stroke:#C82930;stroke-width:1;" width="6" x="15" y="206.5422"/><text fill="#000000" font-family="sans-serif" font-size="14" lengthAdjust="spacing" textLength="162.709" x="27" y="212.8889">estadoSiguiente: int[][]</text><rect fill="none" height="6" style="stroke:#C82930;stroke-width:1;" width="6" x="15" y="222.8391"/><text fill="#000000" font-family="sans-serif" font-size="14" lengthAdjust="spacing" text-decoration="underline" textLength="120.75" x="27" y="229.1857">FILENAME: String</text><line style="stroke:#181818;stroke-width:0.5;" x1="8" x2="290.6377" y1="236.4875" y2="236.4875"/><ellipse cx="18" cy="250.1359" fill="#84BE84" rx="3" ry="3" style="stroke:#038048;stroke-width:1;"/><text fill="#000000" font-family="sans-serif" font-size="14" lengthAdjust="spacing" textLength="194.7012" x="27" y="253.4826">leerEstadoActual(): boolean</text><ellipse cx="18" cy="266.4328" fill="#84BE84" rx="3" ry="3" style="stroke:#038048;stroke-width:1;"/><text fill="#000000" font-family="sans-serif" font-size="14" lengthAdjust="spacing" textLength="158.0059" x="27" y="269.7795">guardarEstadoActual()</text><ellipse cx="18" cy="282.7297" fill="#84BE84" rx="3" ry="3" style="stroke:#038048;stroke-width:1;"/><text fill="#000000" font-family="sans-serif" font-size="14" lengthAdjust="spacing" textLength="258.6377" x="27" y="286.0764">generarEstadoActualPorMontecarlo()</text><ellipse cx="18" cy="299.0266" fill="#84BE84" rx="3" ry="3" style="stroke:#038048;stroke-width:1;"/><text fill="#000000" font-family="sans-serif" font-size="14" lengthAdjust="spacing" textLength="197.7705" x="27" y="302.3732">transitarAlEstadoSiguiente()</text><ellipse cx="18" cy="315.3234" fill="#84BE84" rx="3" ry="3" style="stroke:#038048;stroke-width:1;"/><text fill="#000000" font-family="sans-serif" font-size="14" lengthAdjust="spacing" textLength="179.6758" x="27" y="318.6701">generarEstadoSiguiente()</text><ellipse cx="18" cy="331.6203" fill="#84BE84" rx="3" ry="3" style="stroke:#038048;stroke-width:1;"/><text fill="#000000" font-family="sans-serif" font-size="14" lengthAdjust="spacing" textLength="117.708" x="27" y="334.967">toString(): String</text></g><!--class Graph--><g class="entity" data-entity="Graph" data-source-line="24" data-uid="ent0005" id="entity_Graph"><rect fill="#F1F1F1" height="178.375" rx="2.5" ry="2.5" style="stroke:#181818;stroke-width:0.5;" width="258.251" x="326.19" y="147.6"/><ellipse cx="423.4893" cy="163.6" fill="#ADD1B2" rx="11" ry="11" style="stroke:#181818;stroke-width:1;"/><path d="M426.4581,169.2406 Q425.8799,169.5375 425.2393,169.6781 Q424.5987,169.8344 423.8956,169.8344 Q421.3956,169.8344 420.0674,168.1938 Q418.7549,166.5375 418.7549,163.4125 Q418.7549,160.2875 420.0674,158.6313 Q421.3956,156.975 423.8956,156.975 Q424.5987,156.975 425.2393,157.1313 Q425.8956,157.2875 426.4581,157.5844 L426.4581,160.3031 Q425.8331,159.725 425.2393,159.4594 Q424.6456,159.1781 424.0206,159.1781 Q422.6768,159.1781 421.9893,160.2563 Q421.3018,161.3188 421.3018,163.4125 Q421.3018,165.5063 421.9893,166.5844 Q422.6768,167.6469 424.0206,167.6469 Q424.6456,167.6469 425.2393,167.3813 Q425.8331,167.1 426.4581,166.5219 L426.4581,169.2406 Z " fill="#000000"/><text fill="#000000" font-family="sans-serif" font-size="14" lengthAdjust="spacing" textLength="42.9434" x="443.9893" y="168.4467">Graph</text><rect fill="#FFFFFF" height="15.9688" style="stroke:#181818;stroke-width:1;stroke-dasharray:2.0,2.0;" width="10.209" x="577.232" y="144.6"/><text fill="#000000" font-family="sans-serif" font-size="12" font-style="italic" lengthAdjust="spacing" textLength="8.209" x="578.232" y="156.7387">V</text><line style="stroke:#181818;stroke-width:0.5;" x1="327.19" x2="583.441" y1="179.6" y2="179.6"/><rect fill="none" height="6" style="stroke:#C82930;stroke-width:1;" width="6" x="334.19" y="190.2484"/><text fill="#000000" font-family="sans-serif" font-size="14" lengthAdjust="spacing" textLength="232.251" x="346.19" y="196.5951">adjacencyList: Map&lt;V, Set&lt;V&gt;&gt;</text><line style="stroke:#181818;stroke-width:0.5;" x1="327.19" x2="583.441" y1="203.8969" y2="203.8969"/><ellipse cx="337.19" cy="217.5453" fill="#84BE84" rx="3" ry="3" style="stroke:#038048;stroke-width:1;"/><text fill="#000000" font-family="sans-serif" font-size="14" lengthAdjust="spacing" textLength="171.0625" x="346.19" y="220.892">addVertex(V v): boolean</text><ellipse cx="337.19" cy="233.8422" fill="#84BE84" rx="3" ry="3" style="stroke:#038048;stroke-width:1;"/><text fill="#000000" font-family="sans-serif" font-size="14" lengthAdjust="spacing" textLength="208.9883" x="346.19" y="237.1889">addEdge(V v1, V v2): boolean</text><ellipse cx="337.19" cy="250.1391" fill="#84BE84" rx="3" ry="3" style="stroke:#038048;stroke-width:1;"/><text fill="#000000" font-family="sans-serif" font-size="14" lengthAdjust="spacing" textLength="211.6133" x="346.19" y="253.4857">obtainAdjacents(V v): Set&lt;V&gt;</text><ellipse cx="337.19" cy="266.4359" fill="#84BE84" rx="3" ry="3" style="stroke:#038048;stroke-width:1;"/><text fill="#000000" font-family="sans-serif" font-size="14" lengthAdjust="spacing" textLength="171.0625" x="346.19" y="269.7826">addVertex(V v): boolean</text><ellipse cx="337.19" cy="282.7328" fill="#84BE84" rx="3" ry="3" style="stroke:#038048;stroke-width:1;"/><text fill="#000000" font-family="sans-serif" font-size="14" lengthAdjust="spacing" textLength="203.9707" x="346.19" y="286.0795">containsVertex(V v): boolean</text><ellipse cx="337.19" cy="299.0297" fill="#84BE84" rx="3" ry="3" style="stroke:#038048;stroke-width:1;"/><text fill="#000000" font-family="sans-serif" font-size="14" lengthAdjust="spacing" textLength="117.708" x="346.19" y="302.3764">toString(): String</text><ellipse cx="337.19" cy="315.3266" fill="#84BE84" rx="3" ry="3" style="stroke:#038048;stroke-width:1;"/><text fill="#000000" font-family="sans-serif" font-size="14" lengthAdjust="spacing" textLength="206.377" x="346.19" y="318.6732">onePath(V v1, V v2): List&lt;V&gt;</text></g><!--class Main--><g class="entity" data-entity="Main" data-source-line="35" data-uid="ent0006" id="entity_Main"><rect fill="#F1F1F1" height="96.8906" rx="2.5" ry="2.5" style="stroke:#181818;stroke-width:0.5;" width="360.4961" x="275.07" y="402.27"/><ellipse cx="434.3576" cy="418.27" fill="#ADD1B2" rx="11" ry="11" style="stroke:#181818;stroke-width:1;"/><path d="M437.3263,423.9106 Q436.7482,424.2075 436.1076,424.3481 Q435.467,424.5044 434.7638,424.5044 Q432.2638,424.5044 430.9357,422.8638 Q429.6232,421.2075 429.6232,418.0825 Q429.6232,414.9575 430.9357,413.3013 Q432.2638,411.645 434.7638,411.645 Q435.467,411.645 436.1076,411.8013 Q436.7638,411.9575 437.3263,412.2544 L437.3263,414.9731 Q436.7013,414.395 436.1076,414.1294 Q435.5138,413.8481 434.8888,413.8481 Q433.5451,413.8481 432.8576,414.9263 Q432.1701,415.9888 432.1701,418.0825 Q432.1701,420.1763 432.8576,421.2544 Q433.5451,422.3169 434.8888,422.3169 Q435.5138,422.3169 436.1076,422.0513 Q436.7013,421.77 437.3263,421.1919 L437.3263,423.9106 Z " fill="#000000"/><text fill="#000000" font-family="sans-serif" font-size="14" lengthAdjust="spacing" textLength="33.4209" x="454.8576" y="423.1167">Main</text><line style="stroke:#181818;stroke-width:0.5;" x1="276.07" x2="634.5661" y1="434.27" y2="434.27"/><line style="stroke:#181818;stroke-width:0.5;" x1="276.07" x2="634.5661" y1="442.27" y2="442.27"/><ellipse cx="286.07" cy="455.9184" fill="#84BE84" rx="3" ry="3" style="stroke:#038048;stroke-width:1;"/><text fill="#000000" font-family="sans-serif" font-size="14" lengthAdjust="spacing" text-decoration="underline" textLength="133.5742" x="295.07" y="459.2651">main(String[] args)</text><ellipse cx="286.07" cy="472.2153" fill="#84BE84" rx="3" ry="3" style="stroke:#038048;stroke-width:1;"/><text fill="#000000" font-family="sans-serif" font-size="14" lengthAdjust="spacing" text-decoration="underline" textLength="105.9707" x="295.07" y="475.562">hacerConway()</text><ellipse cx="286.07" cy="488.5122" fill="#84BE84" rx="3" ry="3" style="stroke:#038048;stroke-width:1;"/><text fill="#000000" font-family="sans-serif" font-size="14" lengthAdjust="spacing" text-decoration="underline" textLength="334.4961" x="295.07" y="491.8589">hacerGrafo(String nodoInicial, String nodoFinal)</text></g><!--reverse link Matematicas to Main--><g class="link" data-entity-1="Matematicas" data-entity-2="Main" data-source-line="43" data-uid="lnk7" id="link_Matematicas_Main"><path codeLine="43" d="M714.2873,272.6668 C663.0173,307.7268 584.54,361.37 525.21,401.93 " fill="none" id="Matematicas-backto-Main" style="stroke:#181818;stroke-width:1;"/><polygon fill="#181818" points="719.24,269.28,709.553,271.0584,715.1127,272.1024,714.0688,277.662,719.24,269.28" style="stroke:#181818;stroke-width:1;"/></g><!--reverse link RandomUtils to Matematicas--><g class="link" data-entity-1="RandomUtils" data-entity-2="Matematicas" data-source-line="44" data-uid="lnk8" id="link_RandomUtils_Matematicas"><path codeLine="44" d="M765.32,77.58 C765.32,114.09 765.32,167.96 765.32,204.43 " fill="none" id="RandomUtils-backto-Matematicas" style="stroke:#181818;stroke-width:1;"/><polygon fill="#181818" points="765.32,71.58,761.32,80.58,765.32,76.58,769.32,80.58,765.32,71.58" style="stroke:#181818;stroke-width:1;"/></g><!--reverse link Tablero to Main--><g class="link" data-entity-1="Tablero" data-entity-2="Main" data-source-line="45" data-uid="lnk9" id="link_Tablero_Main"><path codeLine="45" d="M296.9522,340.0267 C329.8222,362.7967 358.41,382.59 386.45,402.02 " fill="none" id="Tablero-backto-Main" style="stroke:#181818;stroke-width:1;"/><polygon fill="#181818" points="292.02,336.61,297.1405,345.0231,296.1302,339.4572,301.696,338.4469,292.02,336.61" style="stroke:#181818;stroke-width:1;"/></g><!--reverse link Graph to Main--><g class="link" data-entity-1="Graph" data-entity-2="Main" data-source-line="46" data-uid="lnk10" id="link_Graph_Main"><path codeLine="46" d="M455.32,332.43 C455.32,358.3 455.32,379.57 455.32,401.87 " fill="none" id="Graph-backto-Main" style="stroke:#181818;stroke-width:1;"/><polygon fill="#181818" points="455.32,326.43,451.32,335.43,455.32,331.43,459.32,335.43,455.32,326.43" style="stroke:#181818;stroke-width:1;"/></g><!--SRC=[dPHDJ-Cm48Rl-HK-fjhs0CUgGggMW2gHKj7TNgeUflQG6ZcUofui8DJ_liu78OG6hJQ7ABOVlpFpZcDfm7kH0cCEh2LuyHQ9yFnuov4Ff4uYGuiEtBB8qT5AnuPi9exWoO-cGb6nDnYTeaXMGWzW5UM_MPiF8S-byacqYgw2hgkjSQqWSct7ulqRNiv8_u8mTDJ8JZva7pMQe7gzI9FbUd6_d0fjkO6QDGomehda0aorlDrjT-UGjSuAZPQnJ_MZtIpkakKyJQPYpKxRhC9wpXb4btGYnw6gFP51i7sF2t0AUl3vFdIP5RcKGh8IdA4l6pZux3M3cvlaSt7VQmzZJ7MnPI7TijiUtJeu7cQRgxP9ZLkWda2YbQztslCq7BVZR3CMQ-J0NlM2W58RT8mlyKRy6NGiK8dAi6GknYAyBmTHsZDeEwzJOD_8ri7_AxOCdWT5_m_eW6ETv2okW0-VwoXTAfDhVKr3kE7_AG-hSQs-tGbmcHyDeOVWWVj9zXbUu- -XqCf7QbI59KKBgwK6CnQTkHjjmOpAFAEeUuVC9fCgvwXx7zIJBHIz_z0jN9sUTlWN]--></g></svg>